<?xml version="1.0" encoding="UTF-8"?>
<svg id="_основа" data-name="основа" xmlns="http://www.w3.org/2000/svg" viewBox="0 0 1366 766">
  <defs>
    <style>
      .cls-1 {
        fill: #fff;
      }
    </style>
  </defs>
  <g>
    <path class="cls-1" d="m604.68,431.19c.89-1.87,3.98-8.64,2.57-16.8-1.83-10.63-10.8-20.82-21.52-24.36-18.78-6.21-29.67,12.37-57.47,8.2-10.41-1.56-16.33-5.28-17.59-6.09-14.07-9.09-18.01-25.03-19.12-30.62-.63,2.69-1.64,6.77-3.11,11.69-3.47,11.64-5.41,14.28-5.74,18.9-.35,4.85,1.08,11.94,9.6,21.11-7.28-3.88-29.88-14.71-59.5-10.19-31.48,4.8-50.46,23.82-55.88,29.67,50.04-20.2,64.28-13.9,112.38,11.99-6.63.7-15.91,2.4-26.22,6.74-9.93,4.18-17.41,9.37-22.48,13.49,6.52-1.62,13.79-2.97,21.73-3.75,24.51-2.4,45.31,1.62,59.94,5.99-1.38,2.69-2.94,6.75-3.02,11.71-.07,4.22.95,7.73,1.51,9.61.52,1.74,1.08,3.15,1.52,4.15,2.55-4.63,7.47-12.57,15.73-20.23,25.88-24,56.18-19.02,66.68-41.21Zm-112.38-3c-.85,1.58-9.93-.57-44.2-15.73,3.94-.83,13.2-2.23,23.97,1.5,11.23,3.89,21.24,12.35,20.23,14.24Zm41.96,7.49c-4.37-1.71-7.33-4.29-8.99-5.99,14.2,2.98,21.46.18,25.47-3,4.19-3.33,9.95-7.06,17.98-14.98.47-.47,1.9-1.88,3-1.5-1.11,2.35-2.83,5.78-5.24,9.74-5.1,8.38-7.65,12.57-11.99,14.98-8.94,4.98-19.06,1.2-20.23.75Zm39.71-2.25c-1.82.73-3.39,1.2-4.5,1.5,2.1-.99,8.2-4.2,11.24-11.24,1.13-2.62,3.49-8.07.75-12.74-2.46-4.19-8.17-6.27-14.24-5.25.93-1.31,3.84-5.04,8.66-5.93,7.94-1.46,16.33,5.65,16.92,12.94.38,4.74-2.61,8.39-5.35,11.71-4.5,5.47-10.61,7.84-13.49,8.99Z"/>
    <path class="cls-1" d="m405.26,389.33c6.22-.42,14.78-1.01,16.55-5.47,2.44-6.19-8.67-18.56-21.73-23.68-12.86-5.04-19.8.89-30.88-2.23-10.12-2.85-21.86-11.59-35.73-36.14.52,4.53,1.69,11.45,4.71,19.36,2.18,5.72,12.77,31.49,39.39,43.18,4.23,1.86,14.58,5.87,27.7,4.98Z"/>
    <path class="cls-1" d="m429.36,348.78c5.19,2.92,16.26,10.17,22.48,23.97,2.1,4.66,3.18,9.05,3.75,12.74,3.19-3.54,15.32-17.84,14.98-38.96-.21-13.05-5.08-22.81-7.9-27.57-.25,5.26-.83,11.02-1.94,17.14-.42,2.31-.89,4.54-1.39,6.68-1.64-1.65-4.2-3.99-7.67-6.3-12.38-8.23-21.32-5.95-28.63-12.76-2.79-2.59-5.97-7.09-7.16-15.41-3.78,10.23,5.24,34.41,13.49,40.46Z"/>
    <path class="cls-1" d="m642.14,234.9c1.4,2.88-.42,5.2.75,9.74.99,3.86,2.93,4.63,5.24,8.24,5.51,8.6.72,13.88,5.99,20.98.83,1.11,5.1,6.57,10.49,5.99,4.75-.51,7.5-5.41,8.24-6.74,3.53-6.31,1.5-13.2.75-15.73-.86-2.9-2.1-4.91-4.5-8.99-2.43-4.15-4.85-7.41-6.74-9.74.85,2.82.53,4.72,0,5.99-.62,1.5-2.21,3.74-2.21,3.74-.01,0-.03,0-.04,0-.36-1.03-.88-2.38-1.65-3.91-.68-1.35-1.99-3.74-4.35-6.58-3.7-4.45-6.25-7.51-10.49-8.99-5.28-1.84-10.31-.24-12.74.75,7.66.82,10.26,3.23,11.24,5.24Z"/>
    <path class="cls-1" d="m688.59,236.4c3.46.62,9.49,1.83,14.98-1.5.91-.55,6.67-4.03,5.99-7.49-.45-2.32-3.57-3.54-5.99-4.5-.92-.36-3.46-1.28-8.99-1.5-2.49-.1-6.55-.41-11.99,0-3.63.27-5.72.68-8.99,0-1.96-.41-3.5-1.03-4.5-1.5.34,1.9,1.09,4.7,3,7.49,4.7,6.89,12.66,8.31,16.48,8.99Z"/>
    <path class="cls-1" d="m718.56,152.49c.29,1.51,1.11,5.48,4.5,8.99,4.9,5.07,11.36,5.24,12.74,5.24-.45-5.01-2.17-7.95-3.75-9.74-2.24-2.54-4.05-2.61-5.24-5.24-1.32-2.89.07-4.56-.75-8.24-.64-2.88-2.21-5.11-3.75-6.74-1,1.4-5.28,7.74-3.75,15.73Z"/>
    <path class="cls-1" d="m888.63,123.27c-4.99,5.14-6.39,9.6-6.74,12.74-.45,4.06.94,5.22,0,10.49-.44,2.46-1.2,4.75-1.5,8.99-.26,3.73.13,4.68.75,5.24,1.51,1.38,4.76.78,6.74-.75,2.92-2.26,2.99-6.5,3-10.49.01-5.97-1.48-7.98-2.25-14.24-.33-2.71-.6-6.81,0-11.99Z"/>
    <path class="cls-1" d="m1018.99,202.68c-3.27,3.62-4.63,4.08-5.24,3.75-1.51-.81.18-6.99,1.5-10.49,1.93-5.13,4.68-8.87,6.74-11.24-3.43-.45-7.91-.42-11.24,2.25-4.52,3.62-4.36,10.01-7.49,10.49-1.09.17-2.78-.36-5.24-3.75,1.21,8.78-.42,14.79-2.25,18.73-3.06,6.61-7.75,9.93-7.49,16.48.05,1.16.21,5.44,3,7.49,6.46,4.77,26.44-3.57,29.97-17.98,1.63-6.67-.73-12.68-2.25-15.73Z"/>
    <path class="cls-1" d="m949.32,309.82c2.54-2.01,5.46-5.69,4.5-7.49-1.7-3.16-14.57.9-16.48,1.5-4.77,1.5-12.21,3.85-11.99,5.99.31,2.96,15.32,6.86,23.97,0Z"/>
    <path class="cls-1" d="m968.8,377.25c1.14-1.41,25.52-18.84,28.47-23.97-9.04,3.19-19.16,7.46-29.82,13.24-18.74,10.18-33.14,21.78-43.61,31.71,1.46,1.24,3.81,2.96,7.01,4.12,8.68,3.14,15.88-.59,30.87-4.03,4.15-.95,10.15-2.16,17.56-3.09-2.33-1.63-6.12-3.87-11.24-5.24-5.32-1.43-9.88-1.34-12.76-1.07,4.5-3.89,9.01-7.78,13.51-11.67Z"/>
    <path class="cls-1" d="m1024.99,470.9c-17.58,7.13-32.47,9.63-43.45,10.49-15.73,1.23-31.24-.32-32.71,4.73-.79,2.72,2.88,5.96,3.49,6.5,16.86,14.83,68.54-18.97,72.68-21.72Z"/>
    <path class="cls-1" d="m546.24,234.9c2.44,9.32-.13,14.7,0,23.97,0,0,.23,16.66,10.49,31.47,14,20.21,39.38,22.29,38.21,27.72-.62,2.88-8.12,4-12.74,3.75-4.12-.22-6.49-1.38-16.48-5.99-2.34-1.08-5.94-2.69-10.49-4.5,1.49,2.72,3.87,6.53,7.49,10.49,2.75,3.01,9.34,10.06,19.48,13.49,5.4,1.82,11.09,1.71,22.48,1.5,22.56-.43,21.16-.13,22.48,0,25.78,2.47,36.34,23.33,49.45,17.98,1.99-.81,6.17-3.03,8.99-7.49,2.75-4.33,2.94-8.66,3-10.49.11-3.6-1.92-8.45-5.99-17.98-3.54-8.28-5.36-12.43-7.49-13.49-4.45-2.2-7.04,1.22-13.49,0-5.9-1.12-9.71-5.11-11.99-7.49-2.79-2.92-5.67-7.11-10.49-25.47-5.22-19.89-7.07-21.92-8.99-23.97-4.4-4.73-11.58-8.06-23.23-8.24,5.18,1.99,8.69,6.7,8.99,11.99.27,4.8-2.05,10.85-5.24,11.24-4.08.5-6.21-8.65-14.98-22.48-11.76-18.54-24.85-28.75-28.47-31.47-8.18-6.14-15.83-9.84-20.98-11.99,5.49,6.6,8.99,12.66,11.24,17.23,2.2,4.46,1.38,3.81,5.24,12.74,4.82,11.13,6.67,13.51,6.74,18.73.07,5.09-1.59,11.03-3.75,11.24-2.57.25-5.43-7.71-7.49-13.49-3.76-10.51-2.83-13.68-5.99-17.98-2.29-3.11-6.64-6.7-15.73-8.24,3.43,3.72,7.7,9.44,9.74,17.23Zm89.91,62.93c4.39,7.22,9.14,11.57,12.74,14.24,5.75,4.26,7.62,3.52,12.74,8.24,5.04,4.65,8.48,10.23,10.49,13.49,1.69,2.73,2.93,5.09,3.75,6.74-3.63.05-8.29-.53-11.24-3.75-1.87-2.04-1.8-3.63-3-5.99-3.55-7.03-11.5-6.85-17.23-11.24-3.81-2.92-7.82-8.76-8.24-21.73Zm-36.71-5.24c12.94.78,19.95,5.14,23.97,8.99,7.48,7.16,6.76,14.64,14.24,23.23,6.68,7.68,15.41,11.07,21.73,12.74-17.04-.26-25.44-5.55-29.97-10.49-5.25-5.72-5.39-11.07-11.99-19.48-6.01-7.66-12.99-12.27-17.98-14.98Z"/>
    <path class="cls-1" d="m694.59,210.92c2.32.86,7.59,1.87,17.98,4.5,5.55,1.4,8.11,2.19,10.49,4.5,3.01,2.91,4.07,6.61,4.5,8.99-9.65,17.19-5.74,36.68,5.99,44.95,8.14,5.74,21.01,6.76,29.97,1.5,4.84-2.84,7.63-6.98,8.99-8.99,5.13-7.56,5.78-15.11,5.99-17.98,1.11-15.09-7.33-26.25-9.74-29.22,7.01,7.03,9.58,8.12,10.49,7.49,2.13-1.48-2.84-13.74-9.74-23.23-2.56-3.52-8.58-11.83-19.48-17.98-10.97-6.19-13.86-3.98-22.48-10.49-7.78-5.88-11.23-12.08-11.99-13.49-2.39-4.44-5.32-9.87-4.5-16.48,1.19-9.59,5.23-16.43,7.49-19.48,2.91-3.92,6.01-6.58,8.24-8.24-3.58.58-8.82,1.9-14.24,5.24-12.92,7.99-16.83,21.34-17.98,25.47-.93,3.35-2.58,9.15-1.5,16.48,2.17,14.77,13.01,24.18,16.48,26.97-3.15.58-10.06,1.39-17.98-1.5-6.37-2.33-10.57-6.03-12.74-8.24,3.58,20.49,10.13,27.13,15.73,29.22Zm59.94,11.99c.24-3.7,1.4-8.59,5.24-14.24.35,3.02.99,7.46,2.25,12.74,1.26,5.26,1.94,6.38,3,10.49,2.31,8.96,3.95,15.33,1.5,20.98-.7,1.6-3.53,7.31-13.49,10.49,1.74-1.63,4.11-4.35,5.24-8.24,1.05-3.62.47-6.36-.75-12.74-3.11-16.19-3.09-18.03-3-19.48Zm-14.98,29.97c1.62-7.2,4.27-8.52,4.5-13.49.12-2.57-.41-6.41-3.75-11.24,8,3.21,10.44,6.98,11.24,9.74,1.49,5.18-2.26,8.71-2.25,20.23,0,4.8.66,6.92,2.25,8.24,2.79,2.31,7.15,1.09,8.24.75-.34.48-3.88,5.33-9.74,5.24-6.96-.11-10.3-7.08-10.49-7.49-1.81-3.95-.95-7.79,0-11.99Z"/>
    <path class="cls-1" d="m802.47,185.45c2.59,6.34,5.51,9.83,7.49,11.99,1.53,1.65,11.18,12.13,25.47,10.49,10.4-1.19,19.11-8.32,22.48-16.48,2-4.85.46-6.06,1.5-13.49,2.43-17.41,11.97-18.65,13.49-32.97,1.04-9.86-3.4-10.07-3-25.47.1-3.88.34-10.99,3-19.48,3.45-11,6.68-10.62,10.49-20.98,1.87-5.09,6.42-18.03,1.5-31.47-1.75-4.77-4.2-8.28-5.99-10.49,1.13,26.33-7.3,40.32-11.99,46.45-3.77,4.93-13.18,15.31-16.48,13.49-.91-.5-1.23-1.86-1.5-3-.89-3.76.7-6.96,1.5-8.99,1.13-2.87,2.17-7.23,1.5-13.49-3.67,1.71-9.08,4.84-13.49,10.49-6.46,8.3-5.22,14.95-10.49,23.97-5.59,9.56-10.41,7.96-17.98,16.48-15.45,17.39-14.54,45.65-7.49,62.93Zm23.97-25.47c2.66-3.17,6.07-4.58,8.24-5.24-.59,1.17-1.76,3.89-1.5,7.49.24,3.28,1.54,5.65,2.25,6.74,1.96-.96,4.39-2.58,5.24-5.24.77-2.4-.14-4.45-.75-6.74-1.07-4.05-.71-7.2,0-13.49,1.02-8.99,6.64-16.63,10.49-20.98-.75,3.13-1.59,7.8-1.5,13.49.09,5.41.93,6.49,1.5,11.99.76,7.35,2.05,20.14-4.5,25.47-3.32,2.71-6.96,2.1-8.24,5.24-1.03,2.53.28,5.47,1.5,7.49-6.59,1.92-10.36-.2-11.24-.75-7.28-4.5-7.64-18.15-1.5-25.47Z"/>
    <path class="cls-1" d="m892.38,261.87c-6.48,3.64-13.81,4.93-28.47,7.49-14.85,2.59-17.08,1.27-25.47,4.5-13.19,5.06-19.34,12.79-20.98,14.98-3.31,4.42-6.88,9.2-5.99,14.98,1.46,9.46,13.68,14.04,16.48,14.98,4.47,1.51,6.17.92,13.49,1.5,18.47,1.46,25.56,6.62,43.45,7.49,3.15.15,5.74.36,8.99,0,8.28-.91,14.69-4.18,18.73-6.74-1.87.23-30.73,3.64-34.46-5.99-.12-.3-.91-2.43,0-4.5,2.68-6.09,16.93-4.19,26.97-4.5,29.94-.92,52.27-22.46,56.94-26.97,6.05-5.84,15.97-17.17,22.48-35.96-2.25.25-4.5.5-6.74.75.99-6.34,3.17-23.03,0-38.96-1.96-9.82-5.06-14.88-7.49-17.98-2.16-2.76-4.38-4.72-5.99-5.99-.13,4.71-.49,11.44-1.5,19.48-.36,2.83-1.95,15.53-4.5,23.97-7.15,23.73-30.6,42.3-34.46,38.96-2.89-2.5,2.28-15.11,5.99-23.97,3.69-8.81,7.95-15.6,11.24-20.23-13.52,8.11-22.66,16.43-28.47,22.48-9.94,10.34-11.27,15.19-20.23,20.23Zm-7.49,20.98c-4.69,3.68-12.1,9.49-20.98,8.99-3.41-.19-6.18-1.27-10.49,0-1.61.47-4.55,1.38-5.24,3.75-.31,1.06-.21,2.57.75,3.75,1.1,1.35,2.7,1.48,3,1.5-.77,1.51-2.57,4.49-5.99,5.99-7.36,3.23-17.58-2.38-17.98-7.49-.44-5.56,10.8-10.4,12.74-11.24,12.67-5.46,20.23-.71,34.46-4.5,7.21-1.92,12.95-5.18,17.23-8.24-1.55,1.97-3.99,4.75-7.49,7.49Zm43.45-5.99c6.81-2.17,9.02-1.8,13.49-4.5,3.92-2.37,5.7-4.76,5.99-4.5.41.37-3.78,6.76-10.49,11.99-3.5,2.73-11.09,8.65-18.73,6.74-.85-.21-3.58-.89-3.75-2.25-.38-3,12.11-7.05,13.49-7.49Z"/>
    <path class="cls-1" d="m955.31,339.79c-5.05,4.01-10.42,8.81-20.98,16.48-11.67,8.47-18.2,12.11-26.22,14.24-3.22.85-16.85,4.46-20.23-.75-2.06-3.17.22-8.81,1.5-11.99,1.39-3.45,3.22-5.96,4.5-7.49-10.84,2.62-19.52,5.41-25.47,7.49-20.11,7.02-29.54,13.04-44.95,11.99-4.69-.32-13.01-.98-14.98-5.99-1.59-4.04,1.76-8.85,3-10.49-1.21.15-3.04.39-5.24.75-10.44,1.69-13.69,3.38-18.73,3.75-6.04.44-8.35-1.44-14.98-3-16.07-3.77-31.15,1.72-36.71,3.75-7.69,2.8-23.37,8.51-23.23,15.73.2,9.87,29.87,17.22,32.97,29.97.18.75.85,3.91,2.25,8.24,1.38,4.27,2.8,7.63,3.75,9.74.59-1.47,1.24-3.51,1.5-5.99.42-4.08-.65-5.18,0-5.99,2.52-3.18,20.29,11.55,43.45,13.49,5.06.42,9.22.14,13.49-1.5,8.37-3.21,12.99-10.02,14.98-13.49,5.06,4.6,15.24,12.41,29.97,14.98,5.48.96,25.5,4.46,37.46-7.49,2.17-2.17,3.6-4.37,4.5-5.99-1.99.72-13.14,4.53-23.97-1.5-1.26-.7-9.88-5.5-8.99-8.99,1.52-5.97,27.9,3.04,52.44-8.99,9.68-4.74,14.21-10.38,23.97-20.98,11.93-12.95,29.66-31.12,53.94-52.44-18.16,7.44-30.73,15.95-38.96,22.48Zm-181.31,52.44c-5.71.03-10.32-.76-13.49-1.5-5.92-1.38-10.54-2.53-13.18-6.53-1.65-2.5-1.78-4.98-1.8-5.45-.01-.28-.14-4.71,2.25-6.74,2.82-2.41,9.15-1.48,14.24,3.75-3.67,1.15-4.45,2.23-4.5,3-.12,2.02,4.83,3.06,10.49,7.49,2.82,2.21,4.78,4.45,5.99,5.99Zm53.94-3c-14.72,5.92-28.25,2.02-40.46-1.5-8.72-2.51-20.45-5.89-20.98-11.99-.19-2.16,1.03-4.67,3-5.99,5.79-3.9,13.06,5.91,31.47,10.49,10.22,2.54,21.27,2.82,28.47,3,3.67.09,6.75.06,8.99,0-2.18,1.67-5.72,4.07-10.49,5.99Z"/>
    <path class="cls-1" d="m946.32,509.11c-20.87-7.08-24.03-11.81-35.96-13.49-19.51-2.73-43.18,5.41-44.95,16.48-1.43,8.93,11.68,17.92,17.23,21.73,16.24,11.13,33.5,11.55,41.21,11.24.04-1.57-.04-6.02-3-10.49-2.87-4.33-6.77-6.14-8.24-6.74,2.05-1.08,5.4-2.65,9.74-3.75,13.25-3.35,20.78,1.27,32.97,0,4.54-.47,11.38-2.04,19.48-7.49-6.45-1.22-16.52-3.44-28.47-7.49Zm-53.94,4.5c-.08.45.35.63,1.5,3,.86,1.79.82,2.08.75,2.25-.43,1.08-3.22,1.24-5.24.75-4.35-1.05-8.6-5.95-7.49-8.99,1.38-3.79,9.99-3.15,11.99-3,4.77.35,9.11,2.08,8.99,3-.17,1.36-10.1.72-10.49,3Z"/>
    <path class="cls-1" d="m910.36,474.65c-5.49-2.48-12.83-5.15-21.73-6.74-11.73-2.1-21.78-1.54-28.8-.57,2.25-.86,4.95-2.11,7.82-3.92,2.79-1.77,5.02-3.61,6.74-5.24-16.61,2.48-29.49,6.5-38.21,9.73-23.49,8.71-36.67,19.06-59.94,19.48-6.23.11-11.33-.52-14.61-1.06,1.66.05,12.25.17,19.11-7.93,2.75-3.25,3.94-6.69,4.5-8.99-8.63,1.53-18.71,2.72-29.97,3-13.43.33-25.32-.74-35.21-2.26,3.41-.55,8.68-1.85,14.24-5.24,3.65-2.23,6.35-4.71,8.24-6.74-4.23.55-10.87,1.11-18.89.34-38.82-3.72-57.31-33.56-76.27-25.07-.98.44-7.22,3.34-9.55,9.51-3.94,10.45,7.17,20.2,15.19,39.98,2.72,6.71,6.04,16.92,7.36,30.58,1.61-.35,6.84-1.7,10.97-6.64,4.08-4.88,4.52-10.2,4.59-11.85,1.45,16.96,7.38,25.71,12.65,30.58,6.79,6.29,12.97,6.58,24.87,13.81,10.04,6.1,17.13,12.87,21.57,17.67-.28-11.86-2.8-18.9-5.24-23.23-1-1.77-5.11-8.67-3.89-9.66.05-.04.11-.07.15-.08,4.62-.45,11.66-.94,20.23-.75,24.28.53,30.95,5.88,41.96,5.99,29.77.32,36.64-38.17,75.6-52.09,17.87-6.38,34.89-4.89,46.52-2.61Zm-205.28,43.45c-5.92-5.09-12.8-11.85-19.55-20.53-6.21-7.98-10.79-15.63-14.16-22.18,5.18,3.05,12.55,8.22,19.48,16.48,8.37,9.99,12.33,20.01,14.24,26.22Zm1.5-40.46c-8.78-1.65-21.33-5.33-33.71-14.24-3.76-2.71-6.99-5.52-9.74-8.25-.27,1.2-.52,2.45-.75,3.75-.32,1.83-.57,3.58-.75,5.24-6.58-12.48-6.52-16.17-5.24-17.23,2.3-1.92,9.57,3.79,28.47,16.48,9.22,6.19,16.81,11.1,21.73,14.24Zm111.63,21.73c-5.47,11.95-16.5,19.82-28.42,20.1-10.45.25-17.93-5.42-20.29-7.37,11.85.32,27.36-1.28,42.79-9.32,2.08-1.09,4.05-2.23,5.91-3.41Z"/>
    <path class="cls-1" d="m687.65,376.94c12.02-10.03,16.59-13.16,44.39-34.16,74.79-56.49,89.34-69.8,93.78-91.44,1.7-8.26,2.6-21.09-3.12-38.18,1.12,8.66,1.62,22.66-4.5,37.46-6.51,15.76-17.38,24.86-25.47,31.47-26.01,21.25-39.02,31.88-67.43,52.44-20.59,14.91-45.13,32.8-71.92,58.44-23.03,22.04-35.21,32.87-43.45,49.45-14.11,28.38-12.81,56.76-10.49,73.42,5.09-49.09,22.98-75.02,32.22-86.16,16.43-19.81,53.33-50.52,56-52.75Z"/>
    <path class="cls-1" d="m487.05,677.68c-.86-28.74-3.65-53.5-3.77-74.83,0-.18,0-.46,0-.56-.02-3.34-.13-16-.73-27.8.51-5.76-3.63-10.93-9.73-8.45-13.07,6.28-15.51,27.48-30.98,38.99-4.91-5.08-24-5.7-29.81,0-5.8-5.79-9.79-10.35-16.72-19.63-8.69-11.89-10.66-17.31-15.27-17.45-15.71,1.47-7.55,37.8-9.45,49.44.72,9.56,1.45,23.69,1.09,40.81-.82,38.54-6.68,67.37,1.5,70.43,2.08.77,4.37-.37,5.38-.87,7.25-3.61,7.85-16.11,8.11-23.11,1.19-32.62.07-65.46,0-67.43-.26-7.66-.46-19.03,0-32.97,2.5,3,4.99,5.99,7.49,8.99s4.99,5.99,7.49,8.99c-1.45,16.26,11.87,29.49,26.02,28.84,13.9-.63,25.84-14.51,23.43-30.34,5.49-6.49,10.99-12.99,16.48-19.48,1.58,25.6,1.83,46.58,1.75,61.24-.18,34.23-2.25,57.91,7.24,61.63,2.82,1.1,6.71.47,8.99-1.5,2.66-2.3,1.59-6.05,1.5-20.98-.01-1.75.02.83.02-7.98,0-8.24.01-14.82-.02-15.99Zm-56.85-42.11c-9.18,3.55-18.14-7.94-11.33-15.58,11.35-11.86,26.74,9.15,11.33,15.58Z"/>
    <path class="cls-1" d="m609.18,690.42c-4.17-14.39-6.27-21.69-7.53-26.78-.63-2.54-1.42-5.86-2.77-10.62-2.3-8.12-4.43-13.98-5.09-15.99-2.45-7.51-5.81-18.32-9.45-31.99,1.66-1.39,4.03-3.75,5.82-7.27,2.55-5.03,2.45-9.63,2.36-12.42-.13-4.27-.51-16.02-10.31-23.79-10.12-8.02-22.13-5.35-23.09-5.11-1.98.48-11,2.82-16.21,11.52-3.69,6.16-3.68,12.19-3.64,15.27.17,11.39,6.19,19.5,8.72,22.54-.75,2.19-1.81,5.45-2.91,9.45-1.47,5.35-2.29,9.35-2.91,12.36-4.87,23.76-5.32,24.66-7.27,35.62-.66,3.7-.96,5.55-1.84,10.33-1.7,9.2-2.55,13.8-3.25,16.57-.43,1.7-3.99,15.54-5.82,23.27-.2.86-.64,2.82,0,5.09.2.7,1.3,4.57,5.09,5.82,2.64.87,5.49.1,7.27-1.45,1.57-1.37,1.79-2.9,2.91-7.27,1.52-5.94,1.39-4.19,2.91-10.18,1.32-5.22,2.28-9.97,2.77-12.39.06-.3.11-.54.14-.7,1.2-6.01,2.54-12.71,4.36-21.81,6.46,1.37,14.6,2.44,23.99,2.18,5.38-.15,10.26-.71,14.54-1.45.47,1.69,1.25,4.5,2.18,8,2.73,10.29,4.26,16.07,5.82,23.27,0,.04.02.07.02.11,1.84,8.49,2.76,12.73,4.34,15.16,2.15,3.31,6.49,6.41,10.34,5.66,1.36-.27,2.42-.97,3-1.5,3.76-3.42,1.17-11.89-4.5-31.47Zm-54.65-107.92c1.02-4.73,5.51-9.24,11.19-8.96,4.8.24,8.75,3.83,9.89,8.23,1.34,5.14-1.25,11.05-6.54,13.09-5.06,1.95-10.52-.43-13.09-4.36-2.35-3.59-1.58-7.42-1.45-8Zm11.19,74.96c-5.02-.47-9.51-1.3-13.37-2.25,1.83-9.61,3.99-19.56,6.54-29.81,1.17-4.7,2.39-9.31,3.64-13.81,2.18-.24,4.36-.48,6.54-.73,3.08,8.23,5.19,14.96,6.54,19.63,1.35,4.64,2.24,8.17,4.36,15.27,1.49,4.96,2.78,9,3.64,11.63-5,.51-11.06.71-17.89.07Z"/>
    <path class="cls-1" d="m744.42,709.73c-4.12-5.22-8.24-10.56-12.36-15.99-11.15-14.73-21.56-29.3-31.26-43.62,2.87-1.43,28.15-14.48,30.54-37.81.32-3.17.94-9.7-2.18-16.72-8.44-18.98-35.66-22.56-48.8-24.29-7.4-.97-17.56-1.51-29.72.3v11.63s1.17,7.57,1.5,23.97c.02,1.01-.24,6.27-.78,16.74-.83,16.36-1.26,24.7-1.45,34.17-.2,9.56-.09,16.72,0,22.54.15,9.76.55,21.79,1.45,35.62.49,4.85,4.8,8.39,9.45,8,4.39-.37,7.93-4.14,8-8.72-.24-16.96-.48-33.93-.73-50.89,2.29-.99,4.71-1.96,7.27-2.91,3.03-1.12,5.94-2.08,8.72-2.91,9.85,12.4,17.01,22.98,21.81,30.54,4.59,7.21,8.19,13.48,15.67,20.53,2.3,2.17,16.15,14.95,21.41,11.46,1.14-.75,3.01-3.02,1.45-11.63Zm-70.52-65.43c-2.41,1.23-4.42,2.23-5.82,2.91.55-10.17.91-20.75,1.03-31.71.12-10.9,0-21.42-.31-31.55,4.9.2,11.81.88,19.79,3.08,10.74,2.96,18.65,5.13,22.38,12.19,3.68,6.97,1.16,14.67.73,15.99-2.61,7.96-9,12.1-19.43,18.87-5.82,3.77-13.15,7.53-18.38,10.21Z"/>
    <path class="cls-1" d="m868.4,628.99c-.74-7.14-2.55-24.63-14.89-39.94-21.06-26.13-57.68-27.18-73.43-27.63-4.45-.13-8.12,0-10.58.14-.69,9.14-1.2,18.64-1.5,28.47-.2,6.61-.29,13.07-.28,19.37-9.67,3.76-16.24,12.91-16.72,23.27-.48,10.37,5.24,20.1,14.54,24.72-.04,4.12-.07,9.86,0,16.72.13,13.06.2,19.59.73,25.45.33,3.61.92,8.91,1.45,17.45.13,2.06.22,3.75.28,4.89,7.96,1.06,32.67,3.32,57.88-11.43.86-.5,2.07-1.22,3.54-2.17,5.45-3.5,25.8-17.09,34.99-43.64,1.57-4.54,5.8-18.07,3.98-35.67Zm-96.31,11.68c-.98-.94-4.28-4.13-3.64-8.72.5-3.53,3.08-6.16,5.82-7.27,2.88-1.17,5.52-.33,6.54,0,4.38,1.39,9.41,6,8.72,11.63-.36,2.94-2.22,5.91-5.09,7.27-4.48,2.12-9.6-.25-12.36-2.91Zm78.52,10.18c-2.61,10.29-7.38,17.39-10.91,22.54-2.34,3.42-7.74,11.18-16.72,18.18-15.07,11.74-31.44,14.5-39.99,15.27-.75-7.97-1.28-16.45-1.5-25.39-.17-6.84-.14-13.41.05-19.68,1.64-.18,3.93-.56,6.54-1.45,2.15-.74,7.43-2.55,11.63-7.27,5.57-6.26,7.14-15.25,5.09-22.54-.93-3.31-2.45-5.53-3.64-7.27-5.26-7.7-12.52-11.39-16.72-13.09.24-10.66.48-21.33.73-31.99,6.53-.37,17.64-.09,29.81,5.09,5.62,2.39,28.63,13.15,35.62,37.81,3.91,13.79,1.05,25.68,0,29.81Z"/>
    <path class="cls-1" d="m895.77,569.41c-.73,14.54-2.91,34.17-2.91,67.61,0,9.69.53,17.12.73,31.99.23,17.16.13,31.25,0,40.71-1.66,7.52,3.4,13.6,8,13.81,3.97.18,8.71-3.95,9.45-10.18.42-18.68.25-33.8,0-44.35-.23-10-.53-15.69-.73-29.81-.13-9.21-.09-16.08,0-29.81.09-14.47.25-21.03,1.45-29.81.5-3.68.71-7.61,1.01-10.62.31-3.14-.76-6.32-3.06-8.48-1.2-1.13-2.7-1.99-4.49-1.98-1.04,0-8.88-.57-9.45,10.91Z"/>
    <path class="cls-1" d="m1032.19,682.01c-2.04-14.01-12.52-25.73-26.65-30.54.45-2.27,1.17-7.33-.65-13.09-.49-1.56-3.31-10.49-11.92-13.9-6.64-2.63-14.47-1.1-20.42,3.75-1.74-1.05-4.31-2.66-7.34-4.75-3.35-2.31-5.95-4.23-6.47-4.72-5.61-5.32-13.23-16.35-11.05-26.17,3.9-17.56,37.02-22,48.75-17.45,0,0,2.86.97,8.59,2.9,7.92,2.67,11.92,3.98,13.91,2.41,1.86-1.47,2.72-4.55,2.17-6.9-.61-2.58-2.85-3.95-4.93-5.1-6.11-3.38-9.01-5.34-14.89-6.81-9.8-2.44-18-1.88-21.34-1.56-4.35.42-39.09,3.6-46.22,24.26-1.5,4.34-1.62,8.61-1.63,10.43-.02,9.65,3.49,18.74,7.15,23.99,6.97,10,15.55,15.36,21.45,18.18-.85,2.02-2.06,5.62-1.95,10.18,0,0,.23,9.24,6.5,15.99,7.01,7.54,20.09,8.2,31.85.73,5.29,2.63,15.06,8.58,19.5,19.63,1.35,3.37,1.42,5.24,1.3,6.54-.83,8.84-12.54,13.85-17.55,15.99-16.8,7.19-36.61,1.93-38.25,1.52-7.02-1.75-12.74-4.37-15.7-1.52-2.23,2.15-1.97,6.52-.65,9.45,2.6,5.78,9.97,7.38,16.32,8.68,12.44,2.53,22.74.79,26.58.05,14.71-2.85,32.9-6.13,40.3-21.08,4.78-9.66,3.51-19.32,3.25-21.08Zm-47.45-28.35c-3.44,1.01-9.02.42-10.4-3.64-1.16-3.41,1.23-7.54,3.9-9.45,3.25-2.32,7.67-1.89,10.4.73.44.42,2.84,2.71,2.6,5.82-.35,4.64-6.25,6.47-6.5,6.54Z"/>
  </g>
</svg>